<svg width="1400" height="1000" viewBox="0 0 1400 1000" fill="none" xmlns="http://www.w3.org/2000/svg">
  <defs>
    <linearGradient id="bg" x1="0" y1="0" x2="0" y2="1">
      <stop offset="0%" stop-color="#f1f3ff"/>
      <stop offset="100%" stop-color="#e7eaff"/>
    </linearGradient>
    <linearGradient id="screen" x1="0" y1="0" x2="1" y2="1">
      <stop offset="0%" stop-color="#f7f8fb"/>
      <stop offset="100%" stop-color="#fefefe"/>
    </linearGradient>
    <filter id="shadow" x="-30" y="-30" width="140%" height="140%">
      <feDropShadow dx="0" dy="24" stdDeviation="36" flood-color="#0d0c22" flood-opacity="0.24" />
    </filter>
  </defs>
  <rect width="1400" height="1000" fill="url(#bg)"/>
  <g transform="rotate(-10 700 500) translate(80 10)" filter="url(#shadow)">
    <rect x="150" y="120" rx="80" ry="80" width="1080" height="780" fill="#f9f9fb" stroke="#d5d8e8" stroke-width="8"/>
    <rect x="222" y="192" rx="34" ry="34" width="936" height="640" fill="url(#screen)" stroke="#e1e5f2" stroke-width="6"/>
    <rect x="234" y="206" rx="28" ry="28" width="912" height="104" fill="#242CD2"/>
    <rect x="254" y="330" rx="16" ry="16" width="52" height="52" fill="#FD778B" opacity="0.88"/>
    <rect x="254" y="398" rx="16" ry="16" width="52" height="52" fill="#41b8ff" opacity="0.88"/>
    <rect x="254" y="466" rx="16" ry="16" width="52" height="52" fill="#5ac98e" opacity="0.88"/>
    <rect x="254" y="534" rx="16" ry="16" width="52" height="52" fill="#ffc36c" opacity="0.88"/>
    <g transform="translate(340 280)">
      <g fill="none" stroke="#e7ebf7" stroke-width="5">
        <rect x="0" y="0" width="180" height="540"/>
        <rect x="192" y="0" width="180" height="540"/>
        <rect x="384" y="0" width="180" height="540"/>
        <rect x="576" y="0" width="180" height="540"/>
        <rect x="768" y="0" width="180" height="540"/>
      </g>
      <g stroke="#fff" stroke-width="6">
        <rect x="12" y="60" rx="16" ry="16" width="156" height="110" fill="#39A0FF"/>
        <rect x="204" y="160" rx="16" ry="16" width="156" height="110" fill="#4DCF99"/>
        <rect x="396" y="260" rx="16" ry="16" width="156" height="110" fill="#FF8652"/>
        <rect x="588" y="380" rx="16" ry="16" width="156" height="110" fill="#242CD2"/>
        <rect x="780" y="480" rx="16" ry="16" width="156" height="110" fill="#FD778B"/>
      </g>
    </g>
    <rect x="502" y="698" rx="22" ry="22" width="376" height="82" fill="#6e7380" stroke="#e1e5f2" stroke-width="4" opacity="0.92"/>
    <text x="258" y="272" font-family="'Plus Jakarta Sans', 'Inter', sans-serif" font-size="34" font-weight="800" fill="white">Reservas</text>
    <text x="540" y="752" font-family="'Plus Jakarta Sans', 'Inter', sans-serif" font-size="30" font-weight="700" fill="#f2f4f7">Reserva realizada correctamente</text>
  </g>
</svg>
